REM MD5 5c2d6f8ed44c31340f04baa132915eb8
FILE "Euro Demo 09 (Germany).bin" BINARY
  TRACK 01 MODE2/2352
    INDEX 01 00:00:00
  TRACK 02 AUDIO
    INDEX 00 21:08:09
    INDEX 01 21:10:09
  TRACK 03 AUDIO
    INDEX 00 23:50:08
    INDEX 01 23:52:08
  TRACK 04 AUDIO
    INDEX 00 24:07:09
    INDEX 01 24:09:09
  TRACK 05 AUDIO
    INDEX 00 24:13:09
    INDEX 01 24:15:09
  TRACK 06 AUDIO
    INDEX 00 28:26:57
    INDEX 01 28:28:57
REM LEADOUT 31:46:12
